<svg xmlns="http://www.w3.org/2000/svg" viewBox="0 0 64 64">
  <defs>
    <radialGradient id="bg" cx="50%" cy="50%" r="50%">
      <stop offset="0%" stop-color="#1a2744"/>
      <stop offset="100%" stop-color="#0b0e17"/>
    </radialGradient>
  </defs>
  <!-- Background circle -->
  <circle cx="32" cy="32" r="32" fill="url(#bg)"/>
  <!-- Stars -->
  <circle cx="10" cy="12" r="1.2" fill="#fff" opacity="0.9"/>
  <circle cx="52" cy="8" r="1" fill="#fff" opacity="0.7"/>
  <circle cx="56" cy="28" r="0.8" fill="#fff" opacity="0.6"/>
  <circle cx="8" cy="44" r="1" fill="#fff" opacity="0.8"/>
  <circle cx="48" cy="52" r="0.9" fill="#fff" opacity="0.5"/>
  <!-- Cat silhouette -->
  <path d="M16 46 L16 28 L12 18 L20 24 L26 22 L32 20 L38 22 L44 24 L52 18 L48 28 L48 46 Z" fill="#4a9fd4"/>
  <!-- Cat ears (pointed tips) -->
  <path d="M16 28 L12 18 L20 24 Z" fill="#7fb8e0"/>
  <path d="M48 28 L52 18 L44 24 Z" fill="#7fb8e0"/>
  <!-- Cat eyes -->
  <ellipse cx="26" cy="32" rx="3" ry="3.5" fill="#0b0e17"/>
  <ellipse cx="38" cy="32" rx="3" ry="3.5" fill="#0b0e17"/>
  <ellipse cx="26.8" cy="31.5" rx="1" ry="1.2" fill="#fff"/>
  <ellipse cx="38.8" cy="31.5" rx="1" ry="1.2" fill="#fff"/>
  <!-- Cat nose -->
  <path d="M30 37 L32 39 L34 37 Z" fill="#d0e8f7"/>
  <!-- Cat mouth -->
  <path d="M32 39 Q29 42 26 40" fill="none" stroke="#d0e8f7" stroke-width="0.8"/>
  <path d="M32 39 Q35 42 38 40" fill="none" stroke="#d0e8f7" stroke-width="0.8"/>
  <!-- Whiskers -->
  <line x1="14" y1="35" x2="24" y2="36" stroke="#d0e8f7" stroke-width="0.6" opacity="0.7"/>
  <line x1="14" y1="38" x2="24" y2="38" stroke="#d0e8f7" stroke-width="0.6" opacity="0.7"/>
  <line x1="40" y1="36" x2="50" y2="35" stroke="#d0e8f7" stroke-width="0.6" opacity="0.7"/>
  <line x1="40" y1="38" x2="50" y2="38" stroke="#d0e8f7" stroke-width="0.6" opacity="0.7"/>
</svg>
